<svg xmlns="http://www.w3.org/2000/svg" viewBox="0 0 256 256" role="img" aria-labelledby="title"><title id="title">Språkvask</title><rect width="256" height="256" rx="32" fill="#201d25"/><defs><path id="letter" d="M40.48 221.98Q36.08 221.98 30.689999999999998 221.1Q25.3 220.22 20.57 218.9Q15.84 217.58 13.2 216.04Q11.66 215.16 10.89 214.17000000000002Q10.12 213.18 10.12 210.76L9.02 176.22Q9.02 171.82 11.88 171.82Q14.3 171.82 15.18 175.78L17.16 184.14Q24.64 215.6 45.1 215.6Q56.1 215.6 62.59 208.23000000000002Q69.08 200.86 69.08 187.44Q69.08 174.46 62.370000000000005 163.24Q55.660000000000004 152.01999999999998 40.92 141.01999999999998Q24.64 129.36 17.16 118.47Q9.68 107.58 9.68 95.26Q9.68 78.97999999999999 21.01 69.19Q32.34 59.400000000000006 49.94 59.400000000000006Q56.54 59.400000000000006 62.7 60.94Q68.86 62.47999999999999 72.82000000000001 65.34Q74.14 66.22 74.91 67.32Q75.68 68.41999999999999 75.68 70.18L76.34 103.4Q76.34 107.14 73.48 107.14Q71.5 107.14 70.62 104.06L69.08 98.56Q64.24 81.62 59.06999999999999 73.81Q53.9 66.0 44.22 66.0Q34.76 66.0 29.15 72.16Q23.54 78.32 23.54 89.53999999999999Q23.54 99.0 29.7 107.58Q35.86 116.16 51.26 128.48000000000002Q67.76 141.9 75.35 154.32999999999998Q82.94 166.76 82.94 180.84Q82.94 193.16 77.44 202.39999999999998Q71.94 211.64 62.37 216.81Q52.8 221.98 40.48 221.98Z"/><clipPath id="clip"><path d="M40.48 221.98Q36.08 221.98 30.689999999999998 221.1Q25.3 220.22 20.57 218.9Q15.84 217.58 13.2 216.04Q11.66 215.16 10.89 214.17000000000002Q10.12 213.18 10.12 210.76L9.02 176.22Q9.02 171.82 11.88 171.82Q14.3 171.82 15.18 175.78L17.16 184.14Q24.64 215.6 45.1 215.6Q56.1 215.6 62.59 208.23000000000002Q69.08 200.86 69.08 187.44Q69.08 174.46 62.370000000000005 163.24Q55.660000000000004 152.01999999999998 40.92 141.01999999999998Q24.64 129.36 17.16 118.47Q9.68 107.58 9.68 95.26Q9.68 78.97999999999999 21.01 69.19Q32.34 59.400000000000006 49.94 59.400000000000006Q56.54 59.400000000000006 62.7 60.94Q68.86 62.47999999999999 72.82000000000001 65.34Q74.14 66.22 74.91 67.32Q75.68 68.41999999999999 75.68 70.18L76.34 103.4Q76.34 107.14 73.48 107.14Q71.5 107.14 70.62 104.06L69.08 98.56Q64.24 81.62 59.06999999999999 73.81Q53.9 66.0 44.22 66.0Q34.76 66.0 29.15 72.16Q23.54 78.32 23.54 89.53999999999999Q23.54 99.0 29.7 107.58Q35.86 116.16 51.26 128.48000000000002Q67.76 141.9 75.35 154.32999999999998Q82.94 166.76 82.94 180.84Q82.94 193.16 77.44 202.39999999999998Q71.94 211.64 62.37 216.81Q52.8 221.98 40.48 221.98Z"/></clipPath></defs><g transform="translate(74 -5)"><use href="#letter" fill="#f4f5f6"/><path d="M-80 157 Q-20 141 40 157 T160 157 V270 H-80Z" fill="#6382b0" clip-path="url(#clip)"/></g></svg>
